<?xml version="1.0" standalone="no"?>
<!DOCTYPE svg PUBLIC "-//W3C//DTD SVG 20010904//EN"
 "http://www.w3.org/TR/2001/REC-SVG-20010904/DTD/svg10.dtd">
<svg version="1.0" xmlns="http://www.w3.org/2000/svg"
 width="512.000000pt" height="512.000000pt" viewBox="0 0 512.000000 512.000000"
 preserveAspectRatio="xMidYMid meet">

<g transform="translate(0.000000,512.000000) scale(0.100000,-0.100000)"
fill="#000000" stroke="none">
<path d="M2045 5114 c-225 -33 -385 -79 -542 -156 -311 -152 -562 -402 -719
-717 -117 -237 -164 -453 -164 -762 l0 -156 -77 -5 c-138 -8 -234 -72 -290
-192 l-28 -61 -3 -352 -3 -351 25 -29 c32 -37 103 -40 138 -5 23 22 23 26 28
350 4 290 7 331 23 364 10 20 28 44 39 55 19 17 85 18 1714 21 l1693 2 35 -31
c20 -17 40 -47 46 -67 6 -23 10 -242 10 -579 l0 -541 -313 -169 c-322 -174
-387 -218 -408 -280 -16 -48 -6 -295 16 -392 26 -119 72 -248 130 -370 30 -62
55 -115 55 -117 0 -2 -663 -4 -1474 -4 l-1473 0 -27 21 c-61 48 -61 43 -64
521 l-3 437 -30 26 c-41 33 -88 33 -129 -1 l-31 -26 3 -467 3 -466 27 -55 c33
-68 95 -132 157 -162 l46 -23 1566 -5 1567 -5 69 -80 c124 -144 326 -285 408
-285 122 0 359 188 518 410 126 178 246 445 293 655 20 91 30 341 15 386 -24
74 -44 87 -483 323 l-237 127 -3 578 -3 577 -38 77 c-62 125 -160 187 -297
187 l-57 0 -7 185 c-7 211 -18 300 -51 431 -148 583 -624 1032 -1225 1154
-101 21 -368 35 -445 24z m342 -210 c153 -22 262 -57 408 -129 155 -76 269
-160 391 -287 145 -153 251 -330 313 -525 44 -139 60 -248 67 -459 l7 -184
-141 0 -142 0 0 103 c0 266 -33 428 -125 612 -147 296 -415 505 -750 583 -50
11 -115 16 -230 15 -139 0 -173 -3 -258 -26 -182 -48 -348 -141 -484 -270
-101 -97 -164 -182 -228 -312 -85 -170 -106 -267 -112 -507 l-6 -198 -140 0
-140 0 6 208 c4 133 11 234 22 282 91 421 355 769 729 960 253 128 537 175
813 134z m28 -493 c321 -85 581 -356 651 -679 8 -37 17 -145 21 -239 l6 -173
-898 0 -897 0 5 188 c5 198 16 258 69 389 83 200 274 389 478 473 60 25 150
50 230 64 60 11 258 -3 335 -23z m1967 -2851 l313 -169 -1 -118 c0 -93 -6
-139 -27 -218 -86 -332 -305 -667 -532 -815 l-66 -43 -72 49 c-226 155 -438
480 -523 804 -17 64 -27 134 -31 216 l-6 121 314 170 c173 94 315 171 316 172
1 1 142 -75 315 -169z"/>
<path d="M4157 1089 l-159 -162 -51 51 c-88 85 -128 93 -183 38 -36 -36 -43
-74 -21 -111 16 -28 186 -189 214 -204 12 -6 36 -11 53 -11 37 0 103 60 322
293 l130 139 -5 41 c-8 56 -43 87 -100 87 -41 0 -45 -3 -200 -161z"/>
<path d="M1356 2735 c-171 -44 -315 -178 -366 -344 -25 -79 -27 -215 -4 -292
23 -78 68 -158 119 -211 l45 -47 -70 -46 c-146 -97 -275 -278 -316 -445 -22
-85 -22 -204 -2 -251 24 -55 78 -110 133 -135 l50 -24 536 0 537 0 53 28 c62
32 113 94 130 155 17 63 6 189 -25 282 -51 152 -170 306 -303 391 -32 21 -60
39 -62 41 -2 1 19 27 46 58 244 274 134 703 -212 826 -78 28 -209 34 -289 14z
m258 -219 c230 -113 233 -441 5 -555 -54 -27 -73 -31 -144 -31 -67 0 -90 4
-133 26 -67 33 -136 110 -158 176 -21 64 -16 187 11 238 82 159 263 222 419
146z m-24 -807 c90 -21 171 -69 255 -154 44 -44 93 -103 107 -131 33 -61 58
-153 58 -210 0 -78 31 -74 -535 -74 l-505 0 -15 24 c-13 20 -14 34 -5 91 27
168 126 310 279 397 109 63 244 84 361 57z"/>
<path d="M2394 2440 c-56 -22 -72 -108 -30 -157 l24 -28 478 -3 c348 -2 486 1
507 9 30 13 57 55 57 89 0 33 -26 75 -55 88 -31 14 -946 16 -981 2z"/>
<path d="M251 2024 c-26 -22 -31 -33 -31 -70 0 -74 65 -121 131 -94 41 17 59
47 59 96 0 35 -5 47 -31 68 -19 17 -43 26 -64 26 -21 0 -45 -9 -64 -26z"/>
<path d="M2394 1900 c-56 -22 -72 -108 -30 -157 l24 -28 357 0 357 0 24 28
c26 30 32 83 14 118 -25 46 -48 49 -397 48 -180 0 -338 -4 -349 -9z"/>
</g>
</svg>
